<?xml version="1.0" standalone="no"?>
<!DOCTYPE svg PUBLIC "-//W3C//DTD SVG 20010904//EN"
 "http://www.w3.org/TR/2001/REC-SVG-20010904/DTD/svg10.dtd">
<svg version="1.0" xmlns="http://www.w3.org/2000/svg"
 width="72.000000pt" height="72.000000pt" viewBox="0 0 72.000000 72.000000"
 preserveAspectRatio="xMidYMid meet">

<g transform="translate(0.000000,72.000000) scale(0.100000,-0.100000)"
fill="#000000" stroke="none">
<path d="M153 593 c-32 -6 -83 -60 -105 -111 -40 -90 -60 -249 -38 -306 5 -14
20 -32 34 -41 34 -23 81 -7 152 51 68 55 90 64 164 64 74 0 96 -9 164 -64 71
-58 118 -74 152 -51 32 21 44 53 44 118 -1 120 -54 278 -108 315 -44 31 -76
33 -167 13 -76 -17 -93 -17 -143 -6 -79 18 -123 23 -149 18z m136 -49 c65 -15
77 -15 142 0 104 23 135 21 168 -12 57 -56 104 -247 82 -330 -10 -36 -15 -42
-39 -42 -29 0 -53 14 -117 67 -51 44 -132 67 -198 59 -51 -7 -120 -37 -133
-57 -12 -20 -98 -69 -121 -69 -17 0 -25 9 -34 39 -23 79 25 277 82 333 33 33
64 35 168 12z"/>
<path d="M135 466 c-48 -48 -54 -67 -29 -88 8 -7 27 -25 41 -40 15 -16 35 -28
46 -28 26 0 97 72 97 98 0 21 -24 52 -41 52 -5 0 -9 7 -9 15 0 14 -29 35 -49
35 -6 0 -31 -20 -56 -44z m75 -11 c0 -9 11 -20 25 -25 30 -11 33 -40 5 -40
-13 0 -24 -10 -30 -25 -5 -14 -14 -25 -20 -25 -5 0 -12 11 -16 25 -4 16 -13
25 -25 25 -25 0 -25 30 0 37 11 3 21 13 24 24 6 23 37 26 37 4z"/>
<path d="M494 485 c-8 -21 2 -45 19 -45 21 0 38 25 31 44 -8 20 -43 21 -50 1z"/>
<path d="M430 426 c-18 -22 -5 -48 22 -44 17 2 23 10 23 28 0 29 -26 38 -45
16z"/>
<path d="M562 431 c-23 -14 -10 -46 18 -46 16 0 26 6 28 19 3 16 -12 36 -28
36 -3 0 -11 -4 -18 -9z"/>
<path d="M487 357 c-3 -8 1 -23 8 -34 11 -14 18 -16 32 -7 28 17 23 48 -8 52
-16 2 -29 -3 -32 -11z"/>
</g>
</svg>
